<?xml version="1.0" encoding="utf-8"?>
<svg xmlns="http://www.w3.org/2000/svg" xmlns:xlink="http://www.w3.org/1999/xlink" style="margin: auto; background: rgb(255, 255, 255); display: block; shape-rendering: auto;" width="124px" height="124px" viewBox="0 0 100 100" preserveAspectRatio="xMidYMid">
<g transform="rotate(0 50 50)">
  <rect x="46.5" y="19" rx="3.5" ry="6" width="7" height="12" fill="#050505">
    <animate attributeName="opacity" values="1;0" keyTimes="0;1" dur="1.36986301369863s" begin="-1.2557077625570774s" repeatCount="indefinite"></animate>
  </rect>
</g><g transform="rotate(30 50 50)">
  <rect x="46.5" y="19" rx="3.5" ry="6" width="7" height="12" fill="#050505">
    <animate attributeName="opacity" values="1;0" keyTimes="0;1" dur="1.36986301369863s" begin="-1.141552511415525s" repeatCount="indefinite"></animate>
  </rect>
</g><g transform="rotate(60 50 50)">
  <rect x="46.5" y="19" rx="3.5" ry="6" width="7" height="12" fill="#050505">
    <animate attributeName="opacity" values="1;0" keyTimes="0;1" dur="1.36986301369863s" begin="-1.0273972602739725s" repeatCount="indefinite"></animate>
  </rect>
</g><g transform="rotate(90 50 50)">
  <rect x="46.5" y="19" rx="3.5" ry="6" width="7" height="12" fill="#050505">
    <animate attributeName="opacity" values="1;0" keyTimes="0;1" dur="1.36986301369863s" begin="-0.9132420091324199s" repeatCount="indefinite"></animate>
  </rect>
</g><g transform="rotate(120 50 50)">
  <rect x="46.5" y="19" rx="3.5" ry="6" width="7" height="12" fill="#050505">
    <animate attributeName="opacity" values="1;0" keyTimes="0;1" dur="1.36986301369863s" begin="-0.7990867579908675s" repeatCount="indefinite"></animate>
  </rect>
</g><g transform="rotate(150 50 50)">
  <rect x="46.5" y="19" rx="3.5" ry="6" width="7" height="12" fill="#050505">
    <animate attributeName="opacity" values="1;0" keyTimes="0;1" dur="1.36986301369863s" begin="-0.6849315068493149s" repeatCount="indefinite"></animate>
  </rect>
</g><g transform="rotate(180 50 50)">
  <rect x="46.5" y="19" rx="3.5" ry="6" width="7" height="12" fill="#050505">
    <animate attributeName="opacity" values="1;0" keyTimes="0;1" dur="1.36986301369863s" begin="-0.5707762557077625s" repeatCount="indefinite"></animate>
  </rect>
</g><g transform="rotate(210 50 50)">
  <rect x="46.5" y="19" rx="3.5" ry="6" width="7" height="12" fill="#050505">
    <animate attributeName="opacity" values="1;0" keyTimes="0;1" dur="1.36986301369863s" begin="-0.45662100456620996s" repeatCount="indefinite"></animate>
  </rect>
</g><g transform="rotate(240 50 50)">
  <rect x="46.5" y="19" rx="3.5" ry="6" width="7" height="12" fill="#050505">
    <animate attributeName="opacity" values="1;0" keyTimes="0;1" dur="1.36986301369863s" begin="-0.34246575342465746s" repeatCount="indefinite"></animate>
  </rect>
</g><g transform="rotate(270 50 50)">
  <rect x="46.5" y="19" rx="3.5" ry="6" width="7" height="12" fill="#050505">
    <animate attributeName="opacity" values="1;0" keyTimes="0;1" dur="1.36986301369863s" begin="-0.22831050228310498s" repeatCount="indefinite"></animate>
  </rect>
</g><g transform="rotate(300 50 50)">
  <rect x="46.5" y="19" rx="3.5" ry="6" width="7" height="12" fill="#050505">
    <animate attributeName="opacity" values="1;0" keyTimes="0;1" dur="1.36986301369863s" begin="-0.11415525114155249s" repeatCount="indefinite"></animate>
  </rect>
</g><g transform="rotate(330 50 50)">
  <rect x="46.5" y="19" rx="3.5" ry="6" width="7" height="12" fill="#050505">
    <animate attributeName="opacity" values="1;0" keyTimes="0;1" dur="1.36986301369863s" begin="0s" repeatCount="indefinite"></animate>
  </rect>
</g>
<!-- [ldio] generated by https://loading.io/ --></svg>